<svg width="508" height="256" viewBox="0 0 508 256" fill="none" xmlns="http://www.w3.org/2000/svg">
<line x1="182" y1="80" x2="91" y2="80" stroke="#2366D1" stroke-width="30" stroke-linecap="round"/>
<line x1="147" y1="96" x2="147" y2="179" stroke="#2366D1" stroke-width="30" stroke-linecap="round"/>
<path d="M104.787 193.787L90 181" stroke="#609DFF" stroke-width="30" stroke-linecap="round" stroke-linejoin="round"/>
<circle cx="137" cy="216" r="15" fill="#A4C7FF"/>
<path d="M312.592 87.152H262.912V92.336L278.032 93.776C278.608 154.256 279.184 174.992 279.184 186.944C279.184 201.488 276.736 209.984 272.56 214.448L268.384 209.696C263.92 204.8 260.608 202.784 256.144 202.784C250.384 202.784 245.92 206.24 245.344 212.288C248.08 218.336 254.128 220.496 261.616 220.496C276.16 220.496 289.12 211.568 293.728 195.584C297.184 186.944 298.624 176 298.624 156.704V136.4C298.624 122 298.624 107.744 298.768 93.632L312.592 92.336V87.152ZM394.618 188.672V140.144L395.05 117.104L393.466 115.52L365.674 119.552V123.296L375.898 125.168L375.61 176.432C370.282 181.76 364.234 184.928 357.754 184.928C349.834 184.928 345.37 180.752 345.37 168.08V140.144L346.234 117.104L344.65 115.52L316.138 119.264V123.296L326.938 125.312L326.362 167.072C326.074 188.672 334.714 196.304 348.538 196.304C359.194 196.304 368.842 189.968 375.754 181.184L376.762 195.584L404.41 194V189.68L394.618 188.672ZM493.528 188.384C493.384 180.176 493.24 168.368 493.24 160.16V142.592C493.24 123.296 484.744 114.656 471.208 114.656C461.848 114.656 452.92 118.688 443.848 129.2L442.84 116.096L440.824 114.8L413.176 123.584V127.184L424.552 128.336C424.984 135.248 425.128 140.432 425.128 149.792V160.16C425.128 168.08 424.984 180.032 424.84 188.24L414.328 189.536V194H453.784V189.536L444.424 188.384C444.28 180.176 444.136 168.08 444.136 160.16V134.24C451.192 127.76 457.672 124.88 463 124.88C470.776 124.88 474.376 129.2 474.376 141.728V160.16C474.376 168.368 474.232 180.176 473.944 188.24L463.864 189.536V194H503.32V189.536L493.528 188.384Z" fill="#333333"/>
</svg>
